<svg xmlns="http://www.w3.org/2000/svg" viewBox="0 0 80 120" fill="none">
  <g id="pot">
    <path d="M10 9 H54 L48.5 29 C48.2 30.6 47 31.6 45.4 31.6 H18.6 C17 31.6 15.8 30.6 15.5 29 Z"
          fill="var(--pot-body, #D9A87C)"/>
    <path d="M6 6 H58 V10.5 H6 Z" fill="var(--pot-rim, #C48F63)"/>
    <path d="M10 9 H54 L48.5 29 C48.2 30.6 47 31.6 45.4 31.6 H18.6 C17 31.6 15.8 30.6 15.5 29 Z
             M6 6 H58 V10.5 H6 Z"
          fill="none" stroke="var(--plant-outline, #2E3B2A)" stroke-width="3.6" stroke-linejoin="round"/>
  </g>
  <g stroke="var(--plant-outline, #2E3B2A)" stroke-width="3" stroke-linejoin="round" stroke-linecap="round">
    <path d="M40 90 C40 78 40 66 40 58" fill="none" stroke-width="3.2"/>
    <g fill="#6B9E6B">
      <path d="M40 58 C33 50 33 34 40 26 C47 34 47 50 40 58 Z"/>
      <path d="M40 58 C33 50 33 34 40 26 C47 34 47 50 40 58 Z" transform="rotate(115 40 58)"/>
      <path d="M40 58 C33 50 33 34 40 26 C47 34 47 50 40 58 Z" transform="rotate(245 40 58)"/>
    </g>
    <g fill="#9ECB8A" opacity=".85">
      <circle cx="40" cy="30" r="4"/>
      <circle cx="25" cy="66" r="4"/>
      <circle cx="55" cy="66" r="4"/>
    </g>
  </g>
</svg>
