<svg xmlns="http://www.w3.org/2000/svg" viewBox="0 0 80 120" fill="none">

      <g id="pot" transform="translate(8, 88)">
    <path d="M10 9 H54 L48.5 29 C48.2 30.6 47 31.6 45.4 31.6 H18.6 C17 31.6 15.8 30.6 15.5 29 Z"
          fill="var(--pot-body, #D9A87C)"/>
    <path d="M6 6 H58 V10.5 H6 Z" fill="var(--pot-rim, #C48F63)"/>
    <path d="M10 9 H54 L48.5 29 C48.2 30.6 47 31.6 45.4 31.6 H18.6 C17 31.6 15.8 30.6 15.5 29 Z
             M6 6 H58 V10.5 H6 Z"
          fill="none" stroke="var(--plant-outline, #2E3B2A)" stroke-width="3.6" stroke-linejoin="round"/>
  </g>
    <g stroke="var(--plant-outline, #2E3B2A)" stroke-width="3" stroke-linecap="round" stroke-linejoin="round">
      <path d="M40 90 C40 74 44 56 52 42 C57 33 63 26 68 21" fill="none" stroke-width="3.4"/>
      <g fill="#9EAF5E">
        <circle cx="26" cy="72" r="9" fill="#9EAF5E"/>
        <circle cx="62" cy="58" r="8" fill="#9EAF5E"/>
        <circle cx="46" cy="34" r="7" fill="#9EAF5E"/>
      </g>
      <g fill="#C4D68C">
        <circle cx="56" cy="80" r="8"/>
        <circle cx="34" cy="50" r="7"/>
        <circle cx="62" cy="30" r="6"/>
      </g>
      <path d="M35 74 L44 78 M54 60 L50 52 M42 38 L50 32 M50 82 L44 80 M31 52 L40 48" fill="none" stroke-width="2.6"/>
    </g>
</svg>
